Coordinates
version=1
nRows=21
nColumns=12
inDegrees=yes

Units are S.I. units (second, meters, Newtons, ...)
Angles are in degrees

endheader
time	SC_y	SC_z	SC_x	AC_y	AC_z	AC_x	GH_y	GH_z	GH_yy	EL_x	PS_y
       0.0              -43.25          7.146          60.24          32.95           8.34         -5.244          22.14          19.31          152.8          62.68          128.0
   0.03789              -43.25           7.15          60.24          32.95           8.34         -5.243          22.12          19.32          152.8          62.69          128.0
   0.07578              -43.25          7.153          60.24          32.95          8.339         -5.242          22.09          19.33          152.8           62.7          128.0
    0.1137              -43.25          7.157          60.25          32.95          8.339         -5.241          22.06          19.34          152.8          62.71          128.0
    0.1516              -43.25          7.161          60.25          32.95          8.338          -5.24          22.03          19.35          152.8          62.73          128.0
    0.1895              -43.25          7.165          60.25          32.95          8.338         -5.239           22.0          19.36          152.8          62.74          128.0
    0.2273              -43.25           7.17          60.26          32.95          8.337         -5.237          21.96          19.37          152.8          62.76          128.0
    0.2652              -43.25          7.175          60.26          32.95          8.337         -5.236          21.92          19.38          152.8          62.77          128.0
    0.3031              -43.25           7.18          60.27          32.95          8.336         -5.234          21.88           19.4          152.8          62.79          128.0
     0.341              -43.25          7.186          60.27          32.95          8.336         -5.233          21.84          19.41          152.8          62.81          128.0
    0.3789              -43.25          7.192          60.28          32.96          8.335         -5.231          21.79          19.43          152.8          62.83          128.0
    0.4168              -43.25          7.199          60.28          32.96          8.334         -5.229          21.74          19.44          152.8          62.85          128.0
    0.4547              -43.24          7.206          60.29          32.96          8.333         -5.227          21.69          19.46          152.8          62.87          128.0
    0.4926              -43.24          7.213           60.3          32.96          8.332         -5.225          21.63          19.48          152.8           62.9          127.9
    0.5305              -43.24          7.222           60.3          32.96          8.331         -5.222          21.57           19.5          152.8          62.93          127.9
    0.5684              -43.24          7.231          60.31          32.96           8.33          -5.22           21.5          19.52          152.8          62.96          127.9
    0.6063              -43.24          7.241          60.32          32.96          8.329         -5.217          21.43          19.55          152.8          62.99          127.9
    0.6442              -43.24          7.251          60.33          32.96          8.328         -5.214          21.35          19.57          152.8          63.02          127.9
     0.682              -43.24          7.263          60.34          32.96          8.327         -5.211          21.26           19.6          152.8          63.06          127.9
    0.7199              -43.23          7.276          60.35          32.97          8.325         -5.207          21.16          19.64          152.8           63.1          127.9
    0.7578              -43.23           7.29          60.36          32.97          8.324         -5.203          21.05          19.67          152.8          63.15          127.9
